<svg xmlns="http://www.w3.org/2000/svg" width="28" height="28" viewBox="0 0 28 28" fill="none">
  <path d="M25.1218 8.297C25.1396 8.54572 25.1396 8.79449 25.1396 9.04321C25.1396 16.6295 19.3655 25.3706 8.81218 25.3706C5.5609 25.3706 2.54062 24.4289 0 22.7945C0.461945 22.8478 0.906063 22.8655 1.38578 22.8655C4.06848 22.8655 6.53805 21.9595 8.51014 20.4138C5.9873 20.3605 3.87308 18.7082 3.14464 16.4341C3.5 16.4873 3.8553 16.5229 4.22844 16.5229C4.74365 16.5229 5.25891 16.4518 5.73858 16.3275C3.10915 15.7944 1.13701 13.4848 1.13701 10.6955V10.6244C1.90094 11.0508 2.78934 11.3173 3.73089 11.3528C2.1852 10.3224 1.17255 8.56349 1.17255 6.57363C1.17255 5.50766 1.45677 4.53051 1.95426 3.67771C4.77914 7.15994 9.02535 9.43401 13.7867 9.68278C13.6979 9.25638 13.6446 8.81227 13.6446 8.36809C13.6446 5.20563 16.203 2.62952 19.3832 2.62952C21.0354 2.62952 22.5278 3.32241 23.5761 4.4417C24.873 4.19298 26.1166 3.71326 27.2182 3.05592C26.7917 4.38843 25.8857 5.50772 24.6953 6.21833C25.8502 6.09402 26.9695 5.77416 27.9999 5.33004C27.2183 6.46705 26.2411 7.4797 25.1218 8.297Z" fill="#636363"/>
</svg>