<svg xmlns="http://www.w3.org/2000/svg" width="24" height="28" viewBox="0 0 24 28" fill="none">
  <g clip-path="url(#clip0_1537_852)">
    <path d="M12.0054 7.71099C8.59822 7.71099 5.85 10.5165 5.85 13.9946C5.85 17.4727 8.59822 20.2782 12.0054 20.2782C15.4125 20.2782 18.1607 17.4727 18.1607 13.9946C18.1607 10.5165 15.4125 7.71099 12.0054 7.71099ZM12.0054 18.0797C9.80358 18.0797 8.00358 16.2477 8.00358 13.9946C8.00358 11.7415 9.79822 9.90942 12.0054 9.90942C14.2125 9.90942 16.0071 11.7415 16.0071 13.9946C16.0071 16.2477 14.2071 18.0797 12.0054 18.0797ZM19.8482 7.45396C19.8482 8.2688 19.2054 8.91958 18.4125 8.91958C17.6143 8.91958 16.9768 8.26333 16.9768 7.45396C16.9768 6.64458 17.6196 5.98833 18.4125 5.98833C19.2054 5.98833 19.8482 6.64458 19.8482 7.45396ZM23.925 8.94146C23.8339 6.97817 23.3946 5.23911 21.9857 3.8063C20.5821 2.37349 18.8786 1.92505 16.9554 1.82661C14.9732 1.71177 9.03215 1.71177 7.05 1.82661C5.13215 1.91958 3.42858 2.36802 2.01965 3.80083C0.610719 5.23364 0.176791 6.9727 0.0803619 8.93599C-0.0321381 10.9594 -0.0321381 17.0243 0.0803619 19.0477C0.171433 21.011 0.610719 22.75 2.01965 24.1829C3.42858 25.6157 5.12679 26.0641 7.05 26.1625C9.03215 26.2774 14.9732 26.2774 16.9554 26.1625C18.8786 26.0696 20.5821 25.6211 21.9857 24.1829C23.3893 22.75 23.8286 21.011 23.925 19.0477C24.0375 17.0243 24.0375 10.9649 23.925 8.94146ZM21.3643 21.2188C20.9464 22.2907 20.1375 23.1165 19.0821 23.5485C17.5018 24.1883 13.7518 24.0407 12.0054 24.0407C10.2589 24.0407 6.50358 24.1829 4.92858 23.5485C3.87858 23.1219 3.06965 22.2961 2.64643 21.2188C2.01965 19.6055 2.16429 15.7774 2.16429 13.9946C2.16429 12.2118 2.025 8.37817 2.64643 6.77036C3.06429 5.69849 3.87322 4.8727 4.92858 4.44067C6.50893 3.80083 10.2589 3.94849 12.0054 3.94849C13.7518 3.94849 17.5071 3.8063 19.0821 4.44067C20.1321 4.86724 20.9411 5.69302 21.3643 6.77036C21.9911 8.38364 21.8464 12.2118 21.8464 13.9946C21.8464 15.7774 21.9911 19.611 21.3643 21.2188Z" fill="#636363"/>
  </g>
  <defs>
    <clipPath id="clip0_1537_852">
      <rect width="24" height="28" fill="white"/>
    </clipPath>
  </defs>
</svg>