<svg xmlns="http://www.w3.org/2000/svg" width="18" height="18" viewBox="0 0 18 18" fill="none">
  <path d="M5.625 3.375C5.625 2.47989 5.98058 1.62145 6.61351 0.988515C7.24645 0.355579 8.10489 0 9 0C9.89511 0 10.7536 0.355579 11.3865 0.988515C12.0194 1.62145 12.375 2.47989 12.375 3.375C12.375 4.27011 12.0194 5.12855 11.3865 5.76149C10.7536 6.39442 9.89511 6.75 9 6.75C8.10489 6.75 7.24645 6.39442 6.61351 5.76149C5.98058 5.12855 5.625 4.27011 5.625 3.375ZM8.4375 8.71875V18L6.73594 17.1492C6.00117 16.7836 5.20664 16.5516 4.3875 16.4707L1.0125 16.1332C0.439453 16.0734 0 15.5918 0 15.0117V7.875C0 7.25273 0.502734 6.75 1.125 6.75H2.19023C4.42617 6.75 6.60586 7.43906 8.4375 8.71875ZM9.5625 18V8.71875C11.3941 7.43906 13.5738 6.75 15.8098 6.75H16.875C17.4973 6.75 18 7.25273 18 7.875V15.0117C18 15.5883 17.5605 16.0734 16.9875 16.1297L13.6125 16.4672C12.7969 16.548 11.9988 16.7801 11.2641 17.1457L9.5625 18Z" fill="#636363"/>
</svg>