<svg xmlns="http://www.w3.org/2000/svg" width="27" height="27" viewBox="0 0 27 27" fill="none">
  <g clip-path="url(#clip0_1537_854)">
    <path d="M26.5781 13.5C26.5781 6.27539 20.7246 0.421875 13.5 0.421875C6.27539 0.421875 0.421875 6.27539 0.421875 13.5C0.421875 20.0275 5.20436 25.438 11.4565 26.4199V17.2805H8.13428V13.5H11.4565V10.6186C11.4565 7.34115 13.4077 5.53078 16.3962 5.53078C17.8274 5.53078 19.324 5.78602 19.324 5.78602V9.00281H17.6745C16.0502 9.00281 15.5435 10.0111 15.5435 11.0452V13.5H19.1705L18.5904 17.2805H15.5435V26.4199C21.7956 25.438 26.5781 20.0275 26.5781 13.5Z" fill="#636363"/>
  </g>
  <defs>
    <clipPath id="clip0_1537_854">
      <rect width="27" height="27" fill="white"/>
    </clipPath>
  </defs>
</svg>