<svg xmlns="http://www.w3.org/2000/svg" width="23" height="26" viewBox="0 0 23 26" fill="none">
  <path d="M9.59018 10.2629L14.4777 13.0102L9.59018 15.7574V10.2629ZM23 4.0625V21.9375C23 23.2832 21.8962 24.375 20.5357 24.375H2.46429C1.10379 24.375 0 23.2832 0 21.9375V4.0625C0 2.7168 1.10379 1.625 2.46429 1.625H20.5357C21.8962 1.625 23 2.7168 23 4.0625ZM20.8438 13.0152C20.8438 13.0152 20.8438 9.98867 20.4536 8.53633C20.2379 7.73398 19.6065 7.1043 18.8004 6.89102C17.3475 6.5 11.5 6.5 11.5 6.5C11.5 6.5 5.65246 6.5 4.19955 6.89102C3.39353 7.1043 2.76205 7.73398 2.54643 8.53633C2.15625 9.98359 2.15625 13.0152 2.15625 13.0152C2.15625 13.0152 2.15625 16.0418 2.54643 17.4941C2.76205 18.2965 3.39353 18.9008 4.19955 19.1141C5.65246 19.5 11.5 19.5 11.5 19.5C11.5 19.5 17.3475 19.5 18.8004 19.109C19.6065 18.8957 20.2379 18.2914 20.4536 17.4891C20.8438 16.0418 20.8438 13.0152 20.8438 13.0152Z" fill="#636363"/>
</svg>